<?xml version="1.0" encoding="UTF-8" standalone="no"?>
<svg
   xmlns:dc="http://purl.org/dc/elements/1.1/"
   xmlns:cc="http://creativecommons.org/ns#"
   xmlns:rdf="http://www.w3.org/1999/02/22-rdf-syntax-ns#"
   xmlns:svg="http://www.w3.org/2000/svg"
   xmlns="http://www.w3.org/2000/svg"
   xmlns:sodipodi="http://sodipodi.sourceforge.net/DTD/sodipodi-0.dtd"
   xmlns:inkscape="http://www.inkscape.org/namespaces/inkscape"
   width="127.99989"
   height="127.99989"
   viewBox="0 0 33.866635 33.866637"
   version="1.1"
   id="svg8"
   inkscape:version="1.0.2-2 (e86c870879, 2021-01-15)"
   sodipodi:docname="icon.svg"
   inkscape:export-filename="icon-128x128.png"
   inkscape:export-xdpi="96.000084"
   inkscape:export-ydpi="96.000084">
  <defs
     id="defs2" />
  <sodipodi:namedview
     id="base"
     pagecolor="#ffffff"
     bordercolor="#7d7d7d"
     borderopacity="0.49019608"
     inkscape:pageopacity="0.0"
     inkscape:pageshadow="2"
     inkscape:zoom="1"
     inkscape:cx="82.219112"
     inkscape:cy="73.730827"
     inkscape:document-units="px"
     inkscape:current-layer="g885"
     showgrid="false"
     inkscape:snap-bbox="true"
     inkscape:bbox-paths="true"
     inkscape:bbox-nodes="true"
     inkscape:object-paths="true"
     units="px"
     borderlayer="true"
     inkscape:showpageshadow="false"
     inkscape:pagecheckerboard="false"
     showguides="true"
     inkscape:guide-bbox="true"
     inkscape:document-rotation="0"
     fit-margin-top="0"
     fit-margin-left="0"
     fit-margin-right="0"
     fit-margin-bottom="0"
     showborder="true">
    <inkscape:grid
       type="xygrid"
       id="grid4499"
       spacingx="5.2916667"
       spacingy="5.2916667"
       empspacing="20"
       dotted="true"
       originx="0.34416828"
       originy="0.34415401" />
  </sodipodi:namedview>
  <metadata
     id="metadata5">
    <rdf:RDF>
      <cc:Work
         rdf:about="">
        <dc:format>image/svg+xml</dc:format>
        <dc:type
           rdf:resource="http://purl.org/dc/dcmitype/StillImage" />
        <dc:title />
        <cc:license
           rdf:resource="http://creativecommons.org/publicdomain/zero/1.0/" />
      </cc:Work>
      <cc:License
         rdf:about="http://creativecommons.org/publicdomain/zero/1.0/">
        <cc:permits
           rdf:resource="http://creativecommons.org/ns#Reproduction" />
        <cc:permits
           rdf:resource="http://creativecommons.org/ns#Distribution" />
        <cc:permits
           rdf:resource="http://creativecommons.org/ns#DerivativeWorks" />
      </cc:License>
    </rdf:RDF>
  </metadata>
  <g
     id="g1447-6-6"
     inkscape:export-filename="export/themeforest/webman-design.png"
     inkscape:export-xdpi="384.49957"
     inkscape:export-ydpi="384.49957"
     transform="matrix(0.26458333,0,0,0.26458333,-137.76761,-175.86763)"
     style="display:inline">
    <g
       id="g885"
       transform="translate(-74.684662,-52.027772)">
      <rect
         transform="rotate(15)"
         ry="10"
         rx="10"
         y="529.37476"
         x="784.89294"
         height="108.1732"
         width="108.1732"
         id="rect1608-1-0"
         style="display:inline;fill:#fbce2f;fill-opacity:1;stroke:none;stroke-width:1.99999;stroke-linecap:round;stroke-linejoin:round" />
      <g
         id="g879"
         transform="matrix(1.5118109,0,0,1.5118109,647.3811,750.72419)"
         style="fill:#1a1a1a;fill-opacity:1;stroke-width:2.5">
        <path
           inkscape:connector-curvature="0"
           id="path4733"
           d="M -5e-7,5.2916668 1.3229162,3.9687501 3.9687495,6.6145833 6.614583,3.9687501 9.2604162,6.6145833 11.906249,3.9687501 13.229166,5.2916668 9.2604162,9.2604168 6.614583,6.6145833 3.9687495,9.2604168 Z"
           style="opacity:1;fill:#1a1a1a;fill-opacity:1;stroke:none;stroke-width:3.96874;stroke-linecap:round;stroke-linejoin:round;stroke-miterlimit:3.8637;stroke-dasharray:none;stroke-opacity:1" />
        <path
           style="opacity:1;fill:#1a1a1a;fill-opacity:1;stroke:none;stroke-width:3.96874;stroke-linecap:round;stroke-linejoin:round;stroke-miterlimit:3.8637;stroke-dasharray:none;stroke-opacity:1"
           d="M 2.645833,3.96875 3.9687498,5.2916668 6.614583,2.6458335 9.2604162,5.2916668 11.906249,2.6458335 14.552083,5.2916668 15.874999,3.96875 11.906249,0 9.2604162,2.6458335 6.6145827,0 Z"
           id="path4735"
           inkscape:connector-curvature="0" />
      </g>
      <g
         id="g3616-7-4"
         style="display:inline;fill:#1a1a1a;fill-opacity:1;stroke-width:0.6"
         transform="matrix(1.9047548,0,0,1.9047548,-2725.463,1463.9599)">
        <path
           inkscape:connector-curvature="0"
           id="path3590-9-5"
           d="m 1773.7501,-344.24625 c -0.8432,-0.21866 -0.9012,-0.27805 -0.9949,-1.01904 -0.096,-0.76218 -0.1609,-0.82117 -2.0569,-1.882 -4.1657,-2.33075 -6.6987,-4.73739 -6.6987,-6.36447 0,-0.91624 1.0879,-2.46516 3.0232,-4.30439 l 1.291,-1.22689 0.8595,0.19269 c 0.4728,0.10599 1.2957,0.3799 1.8288,0.6087 0.5331,0.2288 1.0003,0.38148 1.0382,0.3393 0.038,-0.0422 0.2581,-0.45087 0.4892,-0.90822 0.404,-0.79935 0.4069,-0.85468 0.077,-1.42888 -0.3385,-0.58852 -0.3355,-0.60571 0.2012,-1.1647 0.2997,-0.31205 0.5448,-0.77528 0.5448,-1.0294 0,-0.66386 1.153,-1.65934 2.4105,-2.08114 0.5895,-0.19776 1.7498,-0.40451 2.5784,-0.45945 1.7658,-0.11707 2.4447,0.14115 3.1778,1.20858 0.4793,0.69786 1.0897,0.95282 2.2526,0.94078 0.5959,-0.006 1.6019,0.4259 1.8232,0.78305 0.071,0.11477 -0.022,0.43958 -0.2078,0.7218 -0.3316,0.50508 -0.3149,0.55699 1.0696,3.31677 1.7415,3.4713 1.8129,3.73508 1.1745,4.33385 -0.267,0.25036 -0.5381,0.72553 -0.6025,1.05594 -0.2551,1.30859 -1.0286,2.96821 -1.9484,4.18064 l -0.9664,1.27402 0.5392,0.003 c 1.2959,0.007 1.2578,0.65019 -0.1052,1.77108 -2.3837,0.49229 -3.0835,0.13795 -2.8379,-0.4824 0,-0.0648 0.4442,-0.65034 0.9871,-1.3012 1.2556,-1.5054 1.8822,-2.59067 2.2792,-3.94761 0.3839,-1.31195 0.3868,-1.20492 -0.033,-1.20436 -0.2192,4e-4 -0.5568,0.39877 -0.9113,1.07567 -0.3097,0.59137 -1.1415,1.62936 -1.8484,2.30666 l -1.2854,1.23146 -1.0836,-0.0897 c -0.6352,-0.0526 -1.2396,-0.23055 -1.4607,-0.43016 -0.2074,-0.18727 -0.7684,-1.1837 -1.2467,-2.2143 -0.5233,-1.12747 -0.9886,-1.8769 -1.1682,-1.8816 -0.1642,-0.004 -0.7451,-0.25142 -1.2909,-0.54916 -1.4752,-0.80463 -1.472,-1.54894 0.014,-3.19765 0.5039,-0.55915 0.9891,-1.01665 1.0784,-1.01665 0.089,0 0.018,0.4518 -0.1596,1.00398 -0.2306,0.71967 -0.2638,1.09917 -0.1172,1.34013 0.3184,0.52322 1.6556,1.09744 2.5504,1.09518 0.9585,-0.002 2.6742,-0.67068 2.9985,-1.27533 -2.1726,-0.73143 -0.7013,-1.47804 0.3989,-1.56828 1.5139,-0.12418 1.6996,0.75302 0.4712,1.54258 l 0.6013,0.4272 c 1.3483,0.9579 2.7673,0.94308 3.9089,-0.0408 0.5022,-0.43284 0.5055,-0.45366 0.2069,-1.29539 -0.4903,-1.38152 -1.7336,-3.61267 -2.415,-4.33347 -0.521,-0.55117 -0.7838,-0.67114 -1.5033,-0.68634 -1.6014,-0.0338 -2.6474,0.0212 -4.6886,0.24642 l -2.0257,0.22355 -0.4856,-0.56328 c -0.4759,-0.55197 -0.4961,-0.55641 -1.0089,-0.2212 -0.6062,0.39631 -0.6371,0.5707 -0.2147,1.21392 0.2927,0.44572 0.2526,0.5861 -0.7786,2.72292 -0.598,1.23913 -1.1841,2.61032 -1.3024,3.04711 -0.3356,1.23838 0.2603,3.27086 0.6614,4.05821 0.3877,0.86763 0.5339,0.83897 0.2297,1.31801 -1.0922,-0.20445 -1.8147,-1.27762 -2.1382,-3.17591 -0.423,0.69381 -0.4023,1.53817 -0.463,2.39694 -0.1393,0.71154 0.1455,0.98743 2.4876,2.40982 1.2406,0.75347 1.2908,0.81436 1.2296,1.49214 -0.06,0.66771 0.6361,0.59347 1.0403,0.63599 0.5858,0.0616 1.0757,0.12506 1.3631,0.17565 0.3002,0.31623 0.5458,0.65127 0.5458,0.74451 0,0.24405 -2.3279,0.17895 -3.3829,-0.0946 z m 8.5038,-5.88899 c 0.4921,-0.66663 0.696,-0.7637 0.9136,-1.18885 l 0.5362,-0.65579 -0.8882,-0.88624 -0.8883,-0.88624 -0.1367,0.9095 c -0.075,0.50023 -0.1931,0.83914 -0.5699,1.95541 -0.3767,1.11628 -0.7007,2.11865 -0.7007,2.14157 0,0.0229 0.1888,-0.008 0.4196,-0.0678 0.2308,-0.0602 0.8223,-0.65491 1.3144,-1.32154 z m -2.3157,0.87542 c 0.291,-1.15687 0.9425,-3.52587 0.9425,-3.85857 0,-0.29192 -0.2405,-0.19675 -1.3091,0.5182 -0.7199,0.48168 -1.4363,0.87578 -1.5919,0.87578 -0.1556,0 -0.2828,0.15636 -0.2827,0.34744 1e-4,0.36605 1.0366,1.94326 1.3965,2.37596 0.3381,0.4064 0.7057,0.29376 0.8447,-0.25881 z m -1.9146,-7.90404 c -0.3997,-0.29153 -0.291,-0.85175 0.2018,-1.04042 0.3546,-0.13575 0.8974,0.25119 0.8974,0.63965 0,0.44754 -0.6902,0.69918 -1.0992,0.40077 z m 5.6211,0.0516 c -0.4349,-0.24282 -0.4459,-0.93906 -0.017,-1.10308 0.3956,-0.15147 0.9453,0.16441 1.0297,0.59169 0.084,0.42658 -0.571,0.75767 -1.0121,0.51139 z"
           style="display:inline;fill:#1a1a1a;fill-opacity:1;stroke-width:0.6"
           sodipodi:nodetypes="ccsssccsccccscscccccccccccccccsccccccccsccccscsccccccccsscccccccscscccccccccsccccscscccccscccccc" />
        <circle
           r="1.1694489"
           cy="148.12842"
           cx="2785.1353"
           style="color:#000000;display:inline;overflow:visible;visibility:visible;fill:#1a1a1a;fill-opacity:1;fill-rule:nonzero;stroke:none;stroke-width:1.2;marker:none;enable-background:accumulate"
           id="path3610-1-25"
           transform="matrix(0.88643154,0,0,0.88643154,-690.5364,-489.1056)" />
        <circle
           r="1.1694489"
           cy="148.12842"
           cx="2785.1353"
           transform="matrix(0.88643154,0,0,0.88643154,-684.83327,-489.1056)"
           id="path3614-6-3"
           style="color:#000000;display:inline;overflow:visible;visibility:visible;fill:#1a1a1a;fill-opacity:1;fill-rule:nonzero;stroke:none;stroke-width:1.2;marker:none;enable-background:accumulate" />
      </g>
    </g>
  </g>
</svg>
